<?xml version="1.0" encoding="UTF-8" standalone="no"?>
<svg width="304px" height="304px" viewBox="0 0 304 304" version="1.1" xmlns="http://www.w3.org/2000/svg" xmlns:xlink="http://www.w3.org/1999/xlink">
    <!-- Generator: Sketch 40 (33762) - http://www.bohemiancoding.com/sketch -->
    <g id="Page-1" stroke="none" stroke-width="1" fill="none" fill-rule="evenodd">
        <g id="Artboard-3-Copy-2" fill="#000000">
            <path d="M44.1000181,224 C44.5632884,221.71776 46.5810421,220 49,220 C51.7614237,220 54,222.238576 54,225 C54,227.761424 51.7614237,230 49,230 C46.5810421,230 44.5632884,228.28224 44.1000181,226 L0,226 L0,224 L44.1000181,224 L44.1000181,224 Z M204.100018,272 C204.563288,269.71776 206.581042,268 209,268 C211.761424,268 214,270.238576 214,273 C214,275.761424 211.761424,278 209,278 C206.581042,278 204.563288,276.28224 204.100018,274 L82,274 L82,272 L204.100018,272 L204.100018,272 Z M261.899982,226 C261.436712,228.28224 259.418958,230 257,230 C254.238576,230 252,227.761424 252,225 C252,222.238576 254.238576,220 257,220 C259.418958,220 261.436712,221.71776 261.899982,224 L304,224 L304,226 L261.899982,226 L261.899982,226 Z M261.899982,242 C261.436712,244.28224 259.418958,246 257,246 C254.238576,246 252,243.761424 252,241 C252,238.238576 254.238576,236 257,236 C259.418958,236 261.436712,237.71776 261.899982,240 L304,240 L304,242 L261.899982,242 L261.899982,242 Z M268.100018,128 C268.563288,125.71776 270.581042,124 273,124 C275.761424,124 278,126.238576 278,129 C278,131.761424 275.761424,134 273,134 C270.581042,134 268.563288,132.28224 268.100018,130 L181.899982,130 C181.436712,132.28224 179.418958,134 177,134 C174.238576,134 172,131.761424 172,129 C172,126.238576 174.238576,124 177,124 C179.418958,124 181.436712,125.71776 181.899982,128 L268.100018,128 L268.100018,128 Z M12.1000181,80 C12.5632884,77.7177597 14.5810421,76 17,76 C19.7614237,76 22,78.2385763 22,81 C22,83.7614237 19.7614237,86 17,86 C14.5810421,86 12.5632884,84.2822403 12.1000181,82 L0,82 L0,80 L12.1000181,80 L12.1000181,80 Z M197.899982,114 C197.436712,116.28224 195.418958,118 193,118 C190.238576,118 188,115.761424 188,113 C188,110.238576 190.238576,108 193,108 C195.418958,108 197.436712,109.71776 197.899982,112 L284.100018,112 C284.563288,109.71776 286.581042,108 289,108 C291.761424,108 294,110.238576 294,113 C294,115.761424 291.761424,118 289,118 C286.581042,118 284.563288,116.28224 284.100018,114 L197.899982,114 L197.899982,114 Z M258,12.1000181 C260.28224,12.5632884 262,14.5810421 262,17 C262,19.7614237 259.761424,22 257,22 C254.238576,22 252,19.7614237 252,17 C252,14.5810421 253.71776,12.5632884 256,12.1000181 L256,0 L258,0 L258,12.1000181 L258,12.1000181 Z M194,220.100018 C196.28224,220.563288 198,222.581042 198,225 C198,227.761424 195.761424,230 193,230 C190.238576,230 188,227.761424 188,225 C188,222.581042 189.71776,220.563288 192,220.100018 L192,165.899982 C189.71776,165.436712 188,163.418958 188,161 C188,158.238576 190.238576,156 193,156 C195.761424,156 198,158.238576 198,161 C198,163.418958 196.28224,165.436712 194,165.899982 L194,220.100018 L194,220.100018 Z M242,21.8999819 C244.28224,21.4367116 246,19.4189579 246,17 C246,14.2385763 243.761424,12 241,12 C238.238576,12 236,14.2385763 236,17 C236,19.4189579 237.71776,21.4367116 240,21.8999819 L240,81 L240,82 L304,82 L304,80 L242,80 L242,80 L242,21.8999819 L242,21.8999819 Z M258,37.8999819 C260.28224,37.4367116 262,35.4189579 262,33 C262,30.2385763 259.761424,28 257,28 C254.238576,28 252,30.2385763 252,33 C252,35.4189579 253.71776,37.4367116 256,37.8999819 L256,65 L256,66 L304,66 L304,64 L258,64 L258,64 L258,37.8999819 L258,37.8999819 Z M130,133.899982 C132.28224,133.436712 134,131.418958 134,129 C134,126.238576 131.761424,124 129,124 C126.238576,124 124,126.238576 124,129 C124,131.418958 125.71776,133.436712 128,133.899982 L128,209 L128,210 L144,210 L144,210 L144,220.100018 C141.71776,220.563288 140,222.581042 140,225 C140,227.761424 142.238576,230 145,230 C147.761424,230 150,227.761424 150,225 C150,222.581042 148.28224,220.563288 146,220.100018 L146,208 L145,208 L130,208 L130,133.899982 L130,133.899982 Z M124.100018,112 C124.563288,109.71776 126.581042,108 129,108 C131.761424,108 134,110.238576 134,113 C134,115.761424 131.761424,118 129,118 C126.581042,118 124.563288,116.28224 124.100018,114 L114,114 L114,114 L114,162 L112.5,162 L85.8999819,162 C85.4367116,164.28224 83.4189579,166 81,166 C78.2385763,166 76,163.761424 76,161 C76,158.238576 78.2385763,156 81,156 C83.4189579,156 85.4367116,157.71776 85.8999819,160 L112,160 L112,113 L112,112 L124.100018,112 L124.100018,112 Z M117.899982,242 C117.436712,244.28224 115.418958,246 113,246 C110.238576,246 108,243.761424 108,241 C108,238.238576 110.238576,236 113,236 C115.418958,236 117.436712,237.71776 117.899982,240 L176,240 L176,165.899982 C173.71776,165.436712 172,163.418958 172,161 C172,158.238576 174.238576,156 177,156 C179.761424,156 182,158.238576 182,161 C182,163.418958 180.28224,165.436712 178,165.899982 L178,242 L177,242 L177,242 L117.899982,242 L117.899982,242 Z M101.899982,178 C101.436712,180.28224 99.4189579,182 97,182 C94.2385763,182 92,179.761424 92,177 C92,174.238576 94.2385763,172 97,172 C99.4189579,172 101.436712,173.71776 101.899982,176 L114,176 L114,177 L114,224 L114,224 L124.100018,224 C124.563288,221.71776 126.581042,220 129,220 C131.761424,220 134,222.238576 134,225 C134,227.761424 131.761424,230 129,230 C126.581042,230 124.563288,228.28224 124.100018,226 L112,226 L112,225 L112,178 L101.899982,178 L101.899982,178 Z M66,284.100018 C68.2822403,284.563288 70,286.581042 70,289 C70,291.761424 67.7614237,294 65,294 C62.2385763,294 60,291.761424 60,289 C60,286.581042 61.7177597,284.563288 64,284.100018 L64,274 L50,274 L50,304 L48,304 L48,272 L49,272 L49,272 L64.5,272 L66,272 L66,284.100018 L66,284.100018 Z M236.100018,176 C236.563288,173.71776 238.581042,172 241,172 C243.761424,172 246,174.238576 246,177 C246,179.761424 243.761424,182 241,182 C238.581042,182 236.563288,180.28224 236.100018,178 L226,178 L226,178 L226,272 L274,272 L274,273 L274,304 L272,304 L272,274 L224,274 L224,273 L224,177 L224,176 L236.100018,176 L236.100018,176 Z M261.899982,146 C261.436712,148.28224 259.418958,150 257,150 C254.238576,150 252,147.761424 252,145 C252,142.238576 254.238576,140 257,140 C259.418958,140 261.436712,141.71776 261.899982,144 L274,144 L274,145.5 L274,145.5 L274,188.100018 C276.28224,188.563288 278,190.581042 278,193 C278,195.761424 275.761424,198 273,198 C270.238576,198 268,195.761424 268,193 C268,190.581042 269.71776,188.563288 272,188.100018 L272,146 L261.899982,146 L261.899982,146 Z M197.899982,242 C197.436712,244.28224 195.418958,246 193,246 C190.238576,246 188,243.761424 188,241 C188,238.238576 190.238576,236 193,236 C195.418958,236 197.436712,237.71776 197.899982,240 L208,240 L208,240 L208,160 L209,160 L224,160 L224,146 L181.899982,146 C181.436712,148.28224 179.418958,150 177,150 C174.238576,150 172,147.761424 172,145 C172,142.238576 174.238576,140 177,140 C179.418958,140 181.436712,141.71776 181.899982,144 L226,144 L226,145 L226,162 L225,162 L210,162 L210,241 L210,242 L197.899982,242 L197.899982,242 Z M284.100018,32 C284.563288,29.7177597 286.581042,28 289,28 C291.761424,28 294,30.2385763 294,33 C294,35.7614237 291.761424,38 289,38 C286.581042,38 284.563288,36.2822403 284.100018,34 L272,34 L272,33 L272,0 L274,0 L274,32 L274,32 L284.100018,32 L284.100018,32 Z M98,101.899982 C100.28224,101.436712 102,99.4189579 102,97 C102,94.2385763 99.7614237,92 97,92 C94.2385763,92 92,94.2385763 92,97 C92,99.4189579 93.7177597,101.436712 96,101.899982 L96,144 L53.8999819,144 C53.4367116,141.71776 51.4189579,140 49,140 C46.2385763,140 44,142.238576 44,145 C44,147.761424 46.2385763,150 49,150 C51.4189579,150 53.4367116,148.28224 53.8999819,146 L96.5,146 L96.5,146 L98,146 L98,101.899982 L98,101.899982 Z M53.8999819,34 C53.4367116,36.2822403 51.4189579,38 49,38 C46.2385763,38 44,35.7614237 44,33 C44,30.2385763 46.2385763,28 49,28 C51.4189579,28 53.4367116,29.7177597 53.8999819,32 L80,32 L80,0 L82,0 L82,34 L81,34 L81,34 L53.8999819,34 L53.8999819,34 Z M114,37.8999819 C116.28224,37.4367116 118,35.4189579 118,33 C118,30.2385763 115.761424,28 113,28 C110.238576,28 108,30.2385763 108,33 C108,35.4189579 109.71776,37.4367116 112,37.8999819 L112,64 L80,64 L80,65 L80,128 L69.8999819,128 C69.4367116,125.71776 67.4189579,124 65,124 C62.2385763,124 60,126.238576 60,129 C60,131.761424 62.2385763,134 65,134 C67.4189579,134 69.4367116,132.28224 69.8999819,130 L82,130 L82,128.5 L82,66 L82,66 L113,66 L114,66 L114,37.8999819 L114,37.8999819 Z M101.899982,82 C101.436712,84.2822403 99.4189579,86 97,86 C94.2385763,86 92,83.7614237 92,81 C92,78.2385763 94.2385763,76 97,76 C99.4189579,76 101.436712,77.7177597 101.899982,80 L128,80 L128,37.8999819 C125.71776,37.4367116 124,35.4189579 124,33 C124,30.2385763 126.238576,28 129,28 C131.761424,28 134,30.2385763 134,33 C134,35.4189579 132.28224,37.4367116 130,37.8999819 L130,82 L128.5,82 L128.5,82 L101.899982,82 L101.899982,82 Z M117.899982,18 C117.436712,20.2822403 115.418958,22 113,22 C110.238576,22 108,19.7614237 108,17 C108,14.2385763 110.238576,12 113,12 C115.418958,12 117.436712,13.7177597 117.899982,16 L146,16 L146,17 L146,17 L146,60.1000181 C148.28224,60.5632884 150,62.5810421 150,65 C150,67.7614237 147.761424,70 145,70 C142.238576,70 140,67.7614237 140,65 C140,62.5810421 141.71776,60.5632884 144,60.1000181 L144,18 L117.899982,18 L117.899982,18 Z M220.100018,288 C220.563288,285.71776 222.581042,284 225,284 C227.761424,284 230,286.238576 230,289 C230,291.761424 227.761424,294 225,294 C222.581042,294 220.563288,292.28224 220.100018,290 L98,290 L98,304 L96,304 L96,288 L97,288 L220.100018,288 L220.100018,288 Z M242,149.899982 C244.28224,149.436712 246,147.418958 246,145 C246,142.238576 243.761424,140 241,140 C238.238576,140 236,142.238576 236,145 C236,147.418958 237.71776,149.436712 240,149.899982 L240,162 L241.5,162 L256,162 L256,192 L241.5,192 L240,192 L240,257 L240,258 L288,258 L288,304 L290,304 L290,257 L290,256 L242,256 L242,256 L242,194 L257,194 L258,194 L258,160 L257,160 L242,160 L242,149.899982 L242,149.899982 Z M53.8999819,18 C53.4367116,20.2822403 51.4189579,22 49,22 C46.2385763,22 44,19.7614237 44,17 C44,14.2385763 46.2385763,12 49,12 C51.4189579,12 53.4367116,13.7177597 53.8999819,16 L64,16 L64,2 L48,2 L48,0 L64.5,0 L64.5,1.11022302e-16 L66,1.11022302e-16 L66,18 L65,18 L53.8999819,18 L53.8999819,18 Z M165.899982,50 C165.436712,52.2822403 163.418958,54 161,54 C158.238576,54 156,51.7614237 156,49 C156,46.2385763 158.238576,44 161,44 C163.418958,44 165.436712,45.7177597 165.899982,48 L192,48 L192,1 L192,0 L242,0 L242,2 L194,2 L194,2 L194,50 L193,50 L165.899982,50 L165.899982,50 Z M117.899982,2 C117.436712,4.28224032 115.418958,6 113,6 C110.238576,6 108,3.76142375 108,1 C108,0.657534161 108.03443,0.32310994 108.100018,-1.28508315e-14 L110.170706,-1.1185497e-14 C110.060154,0.312778925 110,0.649364577 110,1 C110,2.65685425 111.343146,4 113,4 C114.656854,4 116,2.65685425 116,1 C116,0.649364577 115.939846,0.312778925 115.829294,-1.22213351e-12 L117.449991,-1.1185497e-14 L176.5,-1.1185497e-14 L176.5,-1.10744747e-14 L178,-1.10744747e-14 L178,34 L177,34 L160,34 L160,33 L160,21.8999819 C157.71776,21.4367116 156,19.4189579 156,17 C156,14.2385763 158.238576,12 161,12 C163.761424,12 166,14.2385763 166,17 C166,19.4189579 164.28224,21.4367116 162,21.8999819 L162,32 L176,32 L176,2 L117.899982,2 L117.899982,2 Z M117.899982,98 C117.436712,100.28224 115.418958,102 113,102 C110.238576,102 108,99.7614237 108,97 C108,94.2385763 110.238576,92 113,92 C115.418958,92 117.436712,93.7177597 117.899982,96 L137,96 L169,64 L170.414214,64 L170.414214,64 L208,64 L208,21.8999819 C205.71776,21.4367116 204,19.4189579 204,17 C204,14.2385763 206.238576,12 209,12 C211.761424,12 214,14.2385763 214,17 C214,19.4189579 212.28224,21.4367116 210,21.8999819 L210,66 L209,66 L169.828427,66 L137.828427,98 L136,98 L117.899982,98 L117.899982,98 Z M146,188.100018 C148.28224,188.563288 150,190.581042 150,193 C150,195.761424 147.761424,198 145,198 C142.238576,198 140,195.761424 140,193 C140,190.581042 141.71776,188.563288 144,188.100018 L144,113.207107 L144,111.585786 L175.585786,80 L177.207107,80 L177.207107,80 L224,80 L224,21.8999819 C221.71776,21.4367116 220,19.4189579 220,17 C220,14.2385763 222.238576,12 225,12 C227.761424,12 230,14.2385763 230,17 C230,19.4189579 228.28224,21.4367116 226,21.8999819 L226,82 L225,82 L176.414214,82 L146,112.414214 L146,188.100018 L146,188.100018 Z M162,220.100018 C164.28224,220.563288 166,222.581042 166,225 C166,227.761424 163.761424,230 161,230 C158.238576,230 156,227.761424 156,225 C156,222.581042 157.71776,220.563288 160,220.100018 L160,122.207107 L160,120.585786 L184.585786,96 L186.207107,96 L300.100018,96 C300.497701,94.0408696 302.04087,92.4977006 304,92.1000181 L304,94.1707057 C302.834808,94.5825421 302,95.6937812 302,97 C302,98.3062188 302.834808,99.4174579 304,99.8292943 L304,101.899982 C302.04087,101.502299 300.497701,99.9591304 300.100018,98 L185.414214,98 L185.414214,98 L162,121.414214 L162,220.100018 L162,220.100018 Z M18,156.100018 C20.2822403,156.563288 22,158.581042 22,161 C22,163.761424 19.7614237,166 17,166 C14.2385763,166 12,163.761424 12,161 C12,158.581042 13.7177597,156.563288 16,156.100018 L16,154.207107 L16,152.585786 L64,104.585786 L64,104.585786 L64,48 L65,48 L96,48 L96,0 L98,0 L98,48.5 L98,50 L66,50 L66,103.792893 L66,105.414214 L18,153.414214 L18,156.100018 L18,156.100018 Z M50,53.8999819 C52.2822403,53.4367116 54,51.4189579 54,49 C54,46.2385763 51.7614237,44 49,44 C46.2385763,44 44,46.2385763 44,49 C44,51.4189579 45.7177597,53.4367116 48,53.8999819 L48,96.5857864 L1.04360964e-14,144.585786 L0,144.585786 L0,146.207107 L0,209 L0,210 L28.1000181,210 C28.5632884,212.28224 30.5810421,214 33,214 C35.7614237,214 38,211.761424 38,209 C38,206.238576 35.7614237,204 33,204 C30.5810421,204 28.5632884,205.71776 28.1000181,208 L2,208 L2,145.414214 L2,145.414214 L50,97.4142136 L50,95.7928932 L50,53.8999819 L50,53.8999819 Z M34,69.8999819 C36.2822403,69.4367116 38,67.4189579 38,65 C38,62.2385763 35.7614237,60 33,60 C30.2385763,60 28,62.2385763 28,65 C28,67.4189579 29.7177597,69.4367116 32,69.8999819 L32,88.5857864 L0,120.585786 L2.22044605e-15,120.585786 L3.56659147e-15,123.414214 L34,89.4142136 L34,87.7928932 L34,87.7928932 L34,69.8999819 L34,69.8999819 Z M12.1000181,32 C12.5632884,29.7177597 14.5810421,28 17,28 C19.7614237,28 22,30.2385763 22,33 C22,35.7614237 19.7614237,38 17,38 C14.5810421,38 12.5632884,36.2822403 12.1000181,34 L9.41421356,34 L8.8817842e-16,43.4142136 L0,40.5857864 L4.4408921e-16,40.5857864 L8.58578644,32 L10.2071068,32 L10.2071068,32 L12.1000181,32 L12.1000181,32 Z M277.899982,50 C277.436712,52.2822403 275.418958,54 273,54 C270.238576,54 268,51.7614237 268,49 C268,46.2385763 270.238576,44 273,44 C275.418958,44 277.436712,45.7177597 277.899982,48 L296.585786,48 L296.585786,48 L304,40.5857864 L304,43.4142136 L297.414214,50 L295.792893,50 L277.899982,50 L277.899982,50 Z M261.899982,210 C261.436712,212.28224 259.418958,214 257,214 C254.238576,214 252,211.761424 252,209 C252,206.238576 254.238576,204 257,204 C259.418958,204 261.436712,205.71776 261.899982,208 L288,208 L288,138.207107 L288,136.585786 L304,120.585786 L304,123.414214 L290,137.414214 L290,137.414214 L290,210 L289,210 L261.899982,210 L261.899982,210 Z M53.8999819,242 C53.4367116,244.28224 51.4189579,246 49,246 C46.2385763,246 44,243.761424 44,241 C44,238.238576 46.2385763,236 49,236 C51.4189579,236 53.4367116,237.71776 53.8999819,240 L64,240 L64,217.414214 L40.5857864,194 L21.8999819,194 C21.4367116,196.28224 19.4189579,198 17,198 C14.2385763,198 12,195.761424 12,193 C12,190.238576 14.2385763,188 17,188 C19.4189579,188 21.4367116,189.71776 21.8999819,192 L39.7928932,192 L41.4142136,192 L66,216.585786 L66,216.585786 L66,218.207107 L66,218.207107 L66,242 L65,242 L53.8999819,242 L53.8999819,242 Z M204.100018,256 C204.563288,253.71776 206.581042,252 209,252 C211.761424,252 214,254.238576 214,257 C214,259.761424 211.761424,262 209,262 C206.581042,262 204.563288,260.28224 204.100018,258 L96,258 L96,256.5 L96,201.401859 L56.5981411,162 L37.8999819,162 C37.4367116,164.28224 35.4189579,166 33,166 C30.2385763,166 28,163.761424 28,161 C28,158.238576 30.2385763,156 33,156 C35.4189579,156 37.4367116,157.71776 37.8999819,160 L55.7990705,160 L57.4018589,160 L98,200.598141 L98,200.598141 L98,201.799071 L98,201.799071 L98,256 L204.100018,256 L204.100018,256 Z M53.8999819,258 C53.4367116,260.28224 51.4189579,262 49,262 C46.2385763,262 44,259.761424 44,257 C44,254.238576 46.2385763,252 49,252 C51.4189579,252 53.4367116,253.71776 53.8999819,256 L80,256 L80,209.414214 L48.5857864,178 L21.8999819,178 C21.4367116,180.28224 19.4189579,182 17,182 C14.2385763,182 12,179.761424 12,177 C12,174.238576 14.2385763,172 17,172 C19.4189579,172 21.4367116,173.71776 21.8999819,176 L47.7928932,176 L49.4142136,176 L82,208.585786 L82,208.585786 L82,210.207107 L82,210.207107 L82,258 L81,258 L53.8999819,258 L53.8999819,258 Z M97,100 C98.6568542,100 100,98.6568542 100,97 C100,95.3431458 98.6568542,94 97,94 C95.3431458,94 94,95.3431458 94,97 C94,98.6568542 95.3431458,100 97,100 L97,100 Z M97,84 C98.6568542,84 100,82.6568542 100,81 C100,79.3431458 98.6568542,78 97,78 C95.3431458,78 94,79.3431458 94,81 C94,82.6568542 95.3431458,84 97,84 L97,84 Z M113,100 C114.656854,100 116,98.6568542 116,97 C116,95.3431458 114.656854,94 113,94 C111.343146,94 110,95.3431458 110,97 C110,98.6568542 111.343146,100 113,100 L113,100 Z M129,116 C130.656854,116 132,114.656854 132,113 C132,111.343146 130.656854,110 129,110 C127.343146,110 126,111.343146 126,113 C126,114.656854 127.343146,116 129,116 L129,116 Z M129,132 C130.656854,132 132,130.656854 132,129 C132,127.343146 130.656854,126 129,126 C127.343146,126 126,127.343146 126,129 C126,130.656854 127.343146,132 129,132 L129,132 Z M81,164 C82.6568542,164 84,162.656854 84,161 C84,159.343146 82.6568542,158 81,158 C79.3431458,158 78,159.343146 78,161 C78,162.656854 79.3431458,164 81,164 L81,164 Z M97,180 C98.6568542,180 100,178.656854 100,177 C100,175.343146 98.6568542,174 97,174 C95.3431458,174 94,175.343146 94,177 C94,178.656854 95.3431458,180 97,180 L97,180 Z M129,228 C130.656854,228 132,226.656854 132,225 C132,223.343146 130.656854,222 129,222 C127.343146,222 126,223.343146 126,225 C126,226.656854 127.343146,228 129,228 L129,228 Z M113,244 C114.656854,244 116,242.656854 116,241 C116,239.343146 114.656854,238 113,238 C111.343146,238 110,239.343146 110,241 C110,242.656854 111.343146,244 113,244 L113,244 Z M145,228 C146.656854,228 148,226.656854 148,225 C148,223.343146 146.656854,222 145,222 C143.343146,222 142,223.343146 142,225 C142,226.656854 143.343146,228 145,228 L145,228 Z M145,196 C146.656854,196 148,194.656854 148,193 C148,191.343146 146.656854,190 145,190 C143.343146,190 142,191.343146 142,193 C142,194.656854 143.343146,196 145,196 L145,196 Z M161,228 C162.656854,228 164,226.656854 164,225 C164,223.343146 162.656854,222 161,222 C159.343146,222 158,223.343146 158,225 C158,226.656854 159.343146,228 161,228 L161,228 Z M193,244 C194.656854,244 196,242.656854 196,241 C196,239.343146 194.656854,238 193,238 C191.343146,238 190,239.343146 190,241 C190,242.656854 191.343146,244 193,244 L193,244 Z M193,228 C194.656854,228 196,226.656854 196,225 C196,223.343146 194.656854,222 193,222 C191.343146,222 190,223.343146 190,225 C190,226.656854 191.343146,228 193,228 L193,228 Z M177,164 C178.656854,164 180,162.656854 180,161 C180,159.343146 178.656854,158 177,158 C175.343146,158 174,159.343146 174,161 C174,162.656854 175.343146,164 177,164 L177,164 Z M193,164 C194.656854,164 196,162.656854 196,161 C196,159.343146 194.656854,158 193,158 C191.343146,158 190,159.343146 190,161 C190,162.656854 191.343146,164 193,164 L193,164 Z M209,260 C210.656854,260 212,258.656854 212,257 C212,255.343146 210.656854,254 209,254 C207.343146,254 206,255.343146 206,257 C206,258.656854 207.343146,260 209,260 L209,260 Z M209,276 C210.656854,276 212,274.656854 212,273 C212,271.343146 210.656854,270 209,270 C207.343146,270 206,271.343146 206,273 C206,274.656854 207.343146,276 209,276 L209,276 Z M225,292 C226.656854,292 228,290.656854 228,289 C228,287.343146 226.656854,286 225,286 C223.343146,286 222,287.343146 222,289 C222,290.656854 223.343146,292 225,292 L225,292 Z M241,148 C242.656854,148 244,146.656854 244,145 C244,143.343146 242.656854,142 241,142 C239.343146,142 238,143.343146 238,145 C238,146.656854 239.343146,148 241,148 L241,148 Z M241,180 C242.656854,180 244,178.656854 244,177 C244,175.343146 242.656854,174 241,174 C239.343146,174 238,175.343146 238,177 C238,178.656854 239.343146,180 241,180 L241,180 Z M257,148 C258.656854,148 260,146.656854 260,145 C260,143.343146 258.656854,142 257,142 C255.343146,142 254,143.343146 254,145 C254,146.656854 255.343146,148 257,148 L257,148 Z M273,132 C274.656854,132 276,130.656854 276,129 C276,127.343146 274.656854,126 273,126 C271.343146,126 270,127.343146 270,129 C270,130.656854 271.343146,132 273,132 L273,132 Z M177,132 C178.656854,132 180,130.656854 180,129 C180,127.343146 178.656854,126 177,126 C175.343146,126 174,127.343146 174,129 C174,130.656854 175.343146,132 177,132 L177,132 Z M177,148 C178.656854,148 180,146.656854 180,145 C180,143.343146 178.656854,142 177,142 C175.343146,142 174,143.343146 174,145 C174,146.656854 175.343146,148 177,148 L177,148 Z M193,116 C194.656854,116 196,114.656854 196,113 C196,111.343146 194.656854,110 193,110 C191.343146,110 190,111.343146 190,113 C190,114.656854 191.343146,116 193,116 L193,116 Z M289,116 C290.656854,116 292,114.656854 292,113 C292,111.343146 290.656854,110 289,110 C287.343146,110 286,111.343146 286,113 C286,114.656854 287.343146,116 289,116 L289,116 Z M273,52 C274.656854,52 276,50.6568542 276,49 C276,47.3431458 274.656854,46 273,46 C271.343146,46 270,47.3431458 270,49 C270,50.6568542 271.343146,52 273,52 L273,52 Z M289,36 C290.656854,36 292,34.6568542 292,33 C292,31.3431458 290.656854,30 289,30 C287.343146,30 286,31.3431458 286,33 C286,34.6568542 287.343146,36 289,36 L289,36 Z M257,36 C258.656854,36 260,34.6568542 260,33 C260,31.3431458 258.656854,30 257,30 C255.343146,30 254,31.3431458 254,33 C254,34.6568542 255.343146,36 257,36 L257,36 Z M257,20 C258.656854,20 260,18.6568542 260,17 C260,15.3431458 258.656854,14 257,14 C255.343146,14 254,15.3431458 254,17 C254,18.6568542 255.343146,20 257,20 L257,20 Z M241,20 C242.656854,20 244,18.6568542 244,17 C244,15.3431458 242.656854,14 241,14 C239.343146,14 238,15.3431458 238,17 C238,18.6568542 239.343146,20 241,20 L241,20 Z M225,20 C226.656854,20 228,18.6568542 228,17 C228,15.3431458 226.656854,14 225,14 C223.343146,14 222,15.3431458 222,17 C222,18.6568542 223.343146,20 225,20 L225,20 Z M209,20 C210.656854,20 212,18.6568542 212,17 C212,15.3431458 210.656854,14 209,14 C207.343146,14 206,15.3431458 206,17 C206,18.6568542 207.343146,20 209,20 L209,20 Z M49,36 C50.6568542,36 52,34.6568542 52,33 C52,31.3431458 50.6568542,30 49,30 C47.3431458,30 46,31.3431458 46,33 C46,34.6568542 47.3431458,36 49,36 L49,36 Z M17,36 C18.6568542,36 20,34.6568542 20,33 C20,31.3431458 18.6568542,30 17,30 C15.3431458,30 14,31.3431458 14,33 C14,34.6568542 15.3431458,36 17,36 L17,36 Z M49,52 C50.6568542,52 52,50.6568542 52,49 C52,47.3431458 50.6568542,46 49,46 C47.3431458,46 46,47.3431458 46,49 C46,50.6568542 47.3431458,52 49,52 L49,52 Z M33,68 C34.6568542,68 36,66.6568542 36,65 C36,63.3431458 34.6568542,62 33,62 C31.3431458,62 30,63.3431458 30,65 C30,66.6568542 31.3431458,68 33,68 L33,68 Z M49,20 C50.6568542,20 52,18.6568542 52,17 C52,15.3431458 50.6568542,14 49,14 C47.3431458,14 46,15.3431458 46,17 C46,18.6568542 47.3431458,20 49,20 L49,20 Z M49,260 C50.6568542,260 52,258.656854 52,257 C52,255.343146 50.6568542,254 49,254 C47.3431458,254 46,255.343146 46,257 C46,258.656854 47.3431458,260 49,260 L49,260 Z M65,292 C66.6568542,292 68,290.656854 68,289 C68,287.343146 66.6568542,286 65,286 C63.3431458,286 62,287.343146 62,289 C62,290.656854 63.3431458,292 65,292 L65,292 Z M49,228 C50.6568542,228 52,226.656854 52,225 C52,223.343146 50.6568542,222 49,222 C47.3431458,222 46,223.343146 46,225 C46,226.656854 47.3431458,228 49,228 L49,228 Z M49,244 C50.6568542,244 52,242.656854 52,241 C52,239.343146 50.6568542,238 49,238 C47.3431458,238 46,239.343146 46,241 C46,242.656854 47.3431458,244 49,244 L49,244 Z M33,212 C34.6568542,212 36,210.656854 36,209 C36,207.343146 34.6568542,206 33,206 C31.3431458,206 30,207.343146 30,209 C30,210.656854 31.3431458,212 33,212 L33,212 Z M113,36 C114.656854,36 116,34.6568542 116,33 C116,31.3431458 114.656854,30 113,30 C111.343146,30 110,31.3431458 110,33 C110,34.6568542 111.343146,36 113,36 L113,36 Z M129,36 C130.656854,36 132,34.6568542 132,33 C132,31.3431458 130.656854,30 129,30 C127.343146,30 126,31.3431458 126,33 C126,34.6568542 127.343146,36 129,36 L129,36 Z M113,20 C114.656854,20 116,18.6568542 116,17 C116,15.3431458 114.656854,14 113,14 C111.343146,14 110,15.3431458 110,17 C110,18.6568542 111.343146,20 113,20 L113,20 Z M145,68 C146.656854,68 148,66.6568542 148,65 C148,63.3431458 146.656854,62 145,62 C143.343146,62 142,63.3431458 142,65 C142,66.6568542 143.343146,68 145,68 L145,68 Z M161,52 C162.656854,52 164,50.6568542 164,49 C164,47.3431458 162.656854,46 161,46 C159.343146,46 158,47.3431458 158,49 C158,50.6568542 159.343146,52 161,52 L161,52 Z M161,20 C162.656854,20 164,18.6568542 164,17 C164,15.3431458 162.656854,14 161,14 C159.343146,14 158,15.3431458 158,17 C158,18.6568542 159.343146,20 161,20 L161,20 Z M273,196 C274.656854,196 276,194.656854 276,193 C276,191.343146 274.656854,190 273,190 C271.343146,190 270,191.343146 270,193 C270,194.656854 271.343146,196 273,196 L273,196 Z M257,212 C258.656854,212 260,210.656854 260,209 C260,207.343146 258.656854,206 257,206 C255.343146,206 254,207.343146 254,209 C254,210.656854 255.343146,212 257,212 L257,212 Z M257,228 C258.656854,228 260,226.656854 260,225 C260,223.343146 258.656854,222 257,222 C255.343146,222 254,223.343146 254,225 C254,226.656854 255.343146,228 257,228 L257,228 Z M257,244 C258.656854,244 260,242.656854 260,241 C260,239.343146 258.656854,238 257,238 C255.343146,238 254,239.343146 254,241 C254,242.656854 255.343146,244 257,244 L257,244 Z M17,180 C18.6568542,180 20,178.656854 20,177 C20,175.343146 18.6568542,174 17,174 C15.3431458,174 14,175.343146 14,177 C14,178.656854 15.3431458,180 17,180 L17,180 Z M17,196 C18.6568542,196 20,194.656854 20,193 C20,191.343146 18.6568542,190 17,190 C15.3431458,190 14,191.343146 14,193 C14,194.656854 15.3431458,196 17,196 L17,196 Z M17,164 C18.6568542,164 20,162.656854 20,161 C20,159.343146 18.6568542,158 17,158 C15.3431458,158 14,159.343146 14,161 C14,162.656854 15.3431458,164 17,164 L17,164 Z M33,164 C34.6568542,164 36,162.656854 36,161 C36,159.343146 34.6568542,158 33,158 C31.3431458,158 30,159.343146 30,161 C30,162.656854 31.3431458,164 33,164 L33,164 Z M17,84 C18.6568542,84 20,82.6568542 20,81 C20,79.3431458 18.6568542,78 17,78 C15.3431458,78 14,79.3431458 14,81 C14,82.6568542 15.3431458,84 17,84 L17,84 Z M49,148 C50.6568542,148 52,146.656854 52,145 C52,143.343146 50.6568542,142 49,142 C47.3431458,142 46,143.343146 46,145 C46,146.656854 47.3431458,148 49,148 L49,148 Z M65,132 C66.6568542,132 68,130.656854 68,129 C68,127.343146 66.6568542,126 65,126 C63.3431458,126 62,127.343146 62,129 C62,130.656854 63.3431458,132 65,132 L65,132 Z M34,39.7928932 L34,0 L32,0 L32,40.5857864 L8.58578644,64 L0,64 L0,66 L7.79289322,66 L9.41421356,66 L34,41.4142136 L34,39.7928932 L34,39.7928932 L34,39.7928932 Z M2,300.100018 L2,258 L16,258 L16,304 L18,304 L18,257 L18,256 L1,256 L0,256 L0,300.550009 L1.60982339e-15,302.170706 C0.312778925,302.060154 0.649364577,302 1,302 C2.30621883,302 3.41745788,302.834808 3.82929429,304 L5.89998188,304 C5.50229941,302.04087 3.95913038,300.497701 2,300.100018 L2,300.100018 L2,300.100018 Z M34,241 L34,304 L32,304 L32,242 L0,242 L0,240 L34,240 L34,241 L34,241 L34,241 Z M17,18 L18,18 L18,0 L16,0 L16,16 L0,16 L0,18 L17,18 L17,18 L17,18 Z M290,16 L290,0 L288,0 L288,17 L288,18 L304,18 L304,16 L290,16 L290,16 Z M258,289 L258,304 L256,304 L256,290 L242,290 L242,304 L240,304 L240,288 L241,288 L258,288 L258,289 L258,289 Z M-7.74935671e-14,92.1000181 C0.32310994,92.0344303 0.657534161,92 1,92 C3.76142375,92 6,94.2385763 6,97 C6,99.7614237 3.76142375,102 1,102 C0.657534161,102 0.32310994,101.96557 -3.94129174e-14,101.899982 L-3.94129174e-14,99.8292943 C0.312778925,99.9398458 0.649364577,100 1,100 C2.65685425,100 4,98.6568542 4,97 C4,95.3431458 2.65685425,94 1,94 C0.649364577,94 0.312778925,94.0601542 -1.25055521e-12,94.1707057 L-3.94129174e-14,92.1000181 L-7.74935671e-14,92.1000181 L-7.74935671e-14,92.1000181 Z M80,272 L82,272 L82,304 L80,304 L80,272 L80,272 Z M117.899982,304 C117.436712,301.71776 115.418958,300 113,300 C110.581042,300 108.563288,301.71776 108.100018,304 L110.170706,304 C110.582542,302.834808 111.693781,302 113,302 C114.306219,302 115.417458,302.834808 115.829294,304 L117.899982,304 L117.899982,304 L117.899982,304 Z M5.89998188,-4.15223411e-14 C5.96556974,0.32310994 6,0.657534161 6,1 C6,3.76142375 3.76142375,6 1,6 C0.657534161,6 0.32310994,5.96556974 0,5.89998188 L1.72084569e-15,3.82929429 C0.312778925,3.93984578 0.649364577,4 1,4 C2.65685425,4 4,2.65685425 4,1 C4,0.649364577 3.93984578,0.312778925 3.82929429,-1.25055521e-12 L5.89998188,-3.9634962e-14 L5.89998188,-4.15223411e-14 L5.89998188,-4.15223411e-14 Z M300.100018,0 C300.03443,0.32310994 300,0.657534161 300,1 C300,3.41895791 301.71776,5.43671155 304,5.89998188 L304,3.82929429 C302.834808,3.41745788 302,2.30621883 302,1 C302,0.649364577 302.060154,0.312778925 302.170706,1.52655666e-15 L300.100018,1.72084569e-15 L300.100018,0 L300.100018,0 Z M304,300.100018 C302.04087,300.497701 300.497701,302.04087 300.100018,304 L302.170706,304 C302.471991,303.147587 303.147587,302.471991 304,302.170706 L304,300.100018 L304,300.100018 Z" fill='%239C92AC' fill-opacity='0.02' fill-rule='evenodd' id="Combined-Shape"></path>
        </g>
    </g>
</svg>
